<mxfile host="app.diagrams.net" modified="2023-04-21T08:39:11.688Z" agent="Mozilla/5.0 (Windows NT 10.0; Win64; x64) AppleWebKit/537.36 (KHTML, like Gecko) Chrome/112.0.0.0 Safari/537.36" etag="jjoCYN1NX3DgEmIAusVp" version="21.2.1" type="device">
  <diagram name="Page-1" id="fJYTolNkv0oJSZw6YcjP">
    <mxGraphModel dx="1434" dy="756" grid="1" gridSize="10" guides="1" tooltips="1" connect="1" arrows="1" fold="1" page="1" pageScale="1" pageWidth="827" pageHeight="1169" math="0" shadow="0">
      <root>
        <mxCell id="0" />
        <mxCell id="1" parent="0" />
        <mxCell id="cxYo2-Zy_hyxnVCHdYQa-3" value="&lt;font face=&quot;Times New Roman&quot;&gt;Majority Server&lt;/font&gt;" style="rounded=0;whiteSpace=wrap;html=1;" parent="1" vertex="1">
          <mxGeometry x="280" y="80" width="120" height="60" as="geometry" />
        </mxCell>
        <mxCell id="cxYo2-Zy_hyxnVCHdYQa-4" value="&lt;font face=&quot;Times New Roman&quot;&gt;Majority Client&lt;/font&gt;" style="rounded=0;whiteSpace=wrap;html=1;" parent="1" vertex="1">
          <mxGeometry x="420" y="80" width="120" height="60" as="geometry" />
        </mxCell>
        <mxCell id="cxYo2-Zy_hyxnVCHdYQa-12" value="&lt;font face=&quot;Times New Roman&quot;&gt;Mute&lt;/font&gt;" style="rounded=0;whiteSpace=wrap;html=1;" parent="1" vertex="1">
          <mxGeometry x="220" y="210" width="50" height="40" as="geometry" />
        </mxCell>
        <mxCell id="cxYo2-Zy_hyxnVCHdYQa-13" value="&lt;font face=&quot;Times New Roman&quot;&gt;Half and Half&lt;/font&gt;" style="rounded=0;whiteSpace=wrap;html=1;" parent="1" vertex="1">
          <mxGeometry x="400" y="210" width="50" height="40" as="geometry" />
        </mxCell>
        <mxCell id="cxYo2-Zy_hyxnVCHdYQa-14" value="&lt;font face=&quot;Times New Roman&quot;&gt;Malicious&lt;br&gt;&lt;/font&gt;" style="rounded=0;whiteSpace=wrap;html=1;" parent="1" vertex="1">
          <mxGeometry x="310" y="210" width="50" height="40" as="geometry" />
        </mxCell>
        <mxCell id="cxYo2-Zy_hyxnVCHdYQa-15" value="&lt;font face=&quot;Times New Roman&quot;&gt;Normal&lt;/font&gt;" style="rounded=0;whiteSpace=wrap;html=1;" parent="1" vertex="1">
          <mxGeometry x="140" y="210" width="50" height="40" as="geometry" />
        </mxCell>
        <mxCell id="cxYo2-Zy_hyxnVCHdYQa-16" value="" style="endArrow=classic;html=1;rounded=0;exitX=0.5;exitY=1;exitDx=0;exitDy=0;entryX=0.5;entryY=0;entryDx=0;entryDy=0;" parent="1" target="cxYo2-Zy_hyxnVCHdYQa-15" edge="1">
          <mxGeometry width="50" height="50" relative="1" as="geometry">
            <mxPoint x="335" y="140" as="sourcePoint" />
            <mxPoint x="360" y="110" as="targetPoint" />
          </mxGeometry>
        </mxCell>
        <mxCell id="cxYo2-Zy_hyxnVCHdYQa-17" value="" style="endArrow=classic;html=1;rounded=0;exitX=0.5;exitY=1;exitDx=0;exitDy=0;entryX=0.5;entryY=0;entryDx=0;entryDy=0;" parent="1" target="cxYo2-Zy_hyxnVCHdYQa-14" edge="1">
          <mxGeometry width="50" height="50" relative="1" as="geometry">
            <mxPoint x="335" y="140" as="sourcePoint" />
            <mxPoint x="370" y="120" as="targetPoint" />
          </mxGeometry>
        </mxCell>
        <mxCell id="cxYo2-Zy_hyxnVCHdYQa-18" value="" style="endArrow=classic;html=1;rounded=0;exitX=0.5;exitY=1;exitDx=0;exitDy=0;entryX=0.5;entryY=0;entryDx=0;entryDy=0;" parent="1" target="cxYo2-Zy_hyxnVCHdYQa-12" edge="1">
          <mxGeometry width="50" height="50" relative="1" as="geometry">
            <mxPoint x="335" y="140" as="sourcePoint" />
            <mxPoint x="380" y="130" as="targetPoint" />
          </mxGeometry>
        </mxCell>
        <mxCell id="cxYo2-Zy_hyxnVCHdYQa-20" value="" style="endArrow=classic;html=1;rounded=0;exitX=0.5;exitY=1;exitDx=0;exitDy=0;entryX=0.5;entryY=0;entryDx=0;entryDy=0;" parent="1" target="cxYo2-Zy_hyxnVCHdYQa-13" edge="1">
          <mxGeometry width="50" height="50" relative="1" as="geometry">
            <mxPoint x="335" y="140" as="sourcePoint" />
            <mxPoint x="390" y="140" as="targetPoint" />
          </mxGeometry>
        </mxCell>
        <mxCell id="cxYo2-Zy_hyxnVCHdYQa-21" value="" style="endArrow=classic;html=1;rounded=0;exitX=0.45;exitY=0.983;exitDx=0;exitDy=0;exitPerimeter=0;" parent="1" source="cxYo2-Zy_hyxnVCHdYQa-4" edge="1">
          <mxGeometry width="50" height="50" relative="1" as="geometry">
            <mxPoint x="450" y="160" as="sourcePoint" />
            <mxPoint x="460" y="200" as="targetPoint" />
          </mxGeometry>
        </mxCell>
        <mxCell id="cxYo2-Zy_hyxnVCHdYQa-22" value="" style="endArrow=classic;html=1;rounded=0;exitX=0.5;exitY=1;exitDx=0;exitDy=0;" parent="1" source="cxYo2-Zy_hyxnVCHdYQa-4" edge="1">
          <mxGeometry width="50" height="50" relative="1" as="geometry">
            <mxPoint x="635" y="170" as="sourcePoint" />
            <mxPoint x="520" y="200" as="targetPoint" />
          </mxGeometry>
        </mxCell>
        <mxCell id="cxYo2-Zy_hyxnVCHdYQa-23" value="" style="endArrow=classic;html=1;rounded=0;exitX=0.5;exitY=1;exitDx=0;exitDy=0;" parent="1" source="cxYo2-Zy_hyxnVCHdYQa-4" edge="1">
          <mxGeometry width="50" height="50" relative="1" as="geometry">
            <mxPoint x="665" y="170" as="sourcePoint" />
            <mxPoint x="580" y="200" as="targetPoint" />
          </mxGeometry>
        </mxCell>
        <mxCell id="cxYo2-Zy_hyxnVCHdYQa-29" value="&lt;font face=&quot;Times New Roman&quot;&gt;Iteration 2&lt;/font&gt;" style="rounded=0;whiteSpace=wrap;html=1;" parent="1" vertex="1">
          <mxGeometry x="230" y="310" width="50" height="40" as="geometry" />
        </mxCell>
        <mxCell id="cxYo2-Zy_hyxnVCHdYQa-30" value="&lt;font face=&quot;Times New Roman&quot;&gt;Iteration 4&lt;/font&gt;" style="rounded=0;whiteSpace=wrap;html=1;" parent="1" vertex="1">
          <mxGeometry x="410" y="310" width="50" height="40" as="geometry" />
        </mxCell>
        <mxCell id="cxYo2-Zy_hyxnVCHdYQa-31" value="&lt;font face=&quot;Times New Roman&quot;&gt;Iteration 3&lt;br&gt;&lt;/font&gt;" style="rounded=0;whiteSpace=wrap;html=1;" parent="1" vertex="1">
          <mxGeometry x="320" y="310" width="50" height="40" as="geometry" />
        </mxCell>
        <mxCell id="cxYo2-Zy_hyxnVCHdYQa-32" value="&lt;font face=&quot;Times New Roman&quot;&gt;Iteration 1&lt;/font&gt;" style="rounded=0;whiteSpace=wrap;html=1;" parent="1" vertex="1">
          <mxGeometry x="150" y="310" width="50" height="40" as="geometry" />
        </mxCell>
        <mxCell id="cxYo2-Zy_hyxnVCHdYQa-33" value="&lt;font face=&quot;Times New Roman&quot;&gt;Iteration 5&lt;/font&gt;" style="rounded=0;whiteSpace=wrap;html=1;" parent="1" vertex="1">
          <mxGeometry x="490" y="310" width="50" height="40" as="geometry" />
        </mxCell>
        <mxCell id="cxYo2-Zy_hyxnVCHdYQa-35" value="" style="endArrow=classic;html=1;rounded=0;exitX=0.5;exitY=1;exitDx=0;exitDy=0;entryX=0.5;entryY=0;entryDx=0;entryDy=0;" parent="1" source="cxYo2-Zy_hyxnVCHdYQa-14" target="cxYo2-Zy_hyxnVCHdYQa-32" edge="1">
          <mxGeometry width="50" height="50" relative="1" as="geometry">
            <mxPoint x="630" y="210" as="sourcePoint" />
            <mxPoint x="680" y="160" as="targetPoint" />
          </mxGeometry>
        </mxCell>
        <mxCell id="cxYo2-Zy_hyxnVCHdYQa-38" value="" style="endArrow=classic;html=1;rounded=0;exitX=0.5;exitY=1;exitDx=0;exitDy=0;entryX=0.5;entryY=0;entryDx=0;entryDy=0;" parent="1" source="cxYo2-Zy_hyxnVCHdYQa-14" target="cxYo2-Zy_hyxnVCHdYQa-29" edge="1">
          <mxGeometry width="50" height="50" relative="1" as="geometry">
            <mxPoint x="345" y="260" as="sourcePoint" />
            <mxPoint x="185" y="320" as="targetPoint" />
          </mxGeometry>
        </mxCell>
        <mxCell id="cxYo2-Zy_hyxnVCHdYQa-39" value="" style="endArrow=classic;html=1;rounded=0;exitX=0.5;exitY=1;exitDx=0;exitDy=0;entryX=0.5;entryY=0;entryDx=0;entryDy=0;" parent="1" source="cxYo2-Zy_hyxnVCHdYQa-14" target="cxYo2-Zy_hyxnVCHdYQa-31" edge="1">
          <mxGeometry width="50" height="50" relative="1" as="geometry">
            <mxPoint x="355" y="270" as="sourcePoint" />
            <mxPoint x="195" y="330" as="targetPoint" />
          </mxGeometry>
        </mxCell>
        <mxCell id="cxYo2-Zy_hyxnVCHdYQa-41" value="" style="endArrow=classic;html=1;rounded=0;exitX=0.5;exitY=1;exitDx=0;exitDy=0;entryX=0.5;entryY=0;entryDx=0;entryDy=0;" parent="1" source="cxYo2-Zy_hyxnVCHdYQa-14" target="cxYo2-Zy_hyxnVCHdYQa-30" edge="1">
          <mxGeometry width="50" height="50" relative="1" as="geometry">
            <mxPoint x="365" y="280" as="sourcePoint" />
            <mxPoint x="205" y="340" as="targetPoint" />
          </mxGeometry>
        </mxCell>
        <mxCell id="cxYo2-Zy_hyxnVCHdYQa-42" value="" style="endArrow=classic;html=1;rounded=0;exitX=0.5;exitY=1;exitDx=0;exitDy=0;entryX=0.5;entryY=0;entryDx=0;entryDy=0;" parent="1" source="cxYo2-Zy_hyxnVCHdYQa-14" target="cxYo2-Zy_hyxnVCHdYQa-33" edge="1">
          <mxGeometry width="50" height="50" relative="1" as="geometry">
            <mxPoint x="375" y="290" as="sourcePoint" />
            <mxPoint x="215" y="350" as="targetPoint" />
          </mxGeometry>
        </mxCell>
        <mxCell id="cxYo2-Zy_hyxnVCHdYQa-43" value="" style="strokeWidth=2;html=1;shape=mxgraph.flowchart.annotation_2;align=left;labelPosition=right;pointerEvents=1;rotation=90;" parent="1" vertex="1">
          <mxGeometry x="320" y="340" width="50" height="80" as="geometry" />
        </mxCell>
        <mxCell id="cxYo2-Zy_hyxnVCHdYQa-46" style="edgeStyle=orthogonalEdgeStyle;rounded=0;orthogonalLoop=1;jettySize=auto;html=1;exitX=0.5;exitY=1;exitDx=0;exitDy=0;entryX=0.5;entryY=0;entryDx=0;entryDy=0;" parent="1" source="cxYo2-Zy_hyxnVCHdYQa-44" target="cxYo2-Zy_hyxnVCHdYQa-47" edge="1">
          <mxGeometry relative="1" as="geometry">
            <mxPoint x="345" y="450" as="targetPoint" />
          </mxGeometry>
        </mxCell>
        <mxCell id="cxYo2-Zy_hyxnVCHdYQa-44" value="100 client requests" style="text;html=1;strokeColor=none;fillColor=none;align=center;verticalAlign=middle;whiteSpace=wrap;rounded=0;fontFamily=Times New Roman;" parent="1" vertex="1">
          <mxGeometry x="315" y="390" width="60" height="30" as="geometry" />
        </mxCell>
        <mxCell id="cxYo2-Zy_hyxnVCHdYQa-47" value="node_results.txt" style="text;html=1;strokeColor=none;fillColor=none;align=center;verticalAlign=middle;whiteSpace=wrap;rounded=0;fontFamily=Times New Roman;" parent="1" vertex="1">
          <mxGeometry x="302.5" y="455" width="85" height="30" as="geometry" />
        </mxCell>
        <mxCell id="cxYo2-Zy_hyxnVCHdYQa-48" value="" style="strokeWidth=2;html=1;shape=mxgraph.flowchart.annotation_2;align=left;labelPosition=right;pointerEvents=1;rotation=-180;" parent="1" vertex="1">
          <mxGeometry x="550" y="290" width="50" height="80" as="geometry" />
        </mxCell>
        <mxCell id="cxYo2-Zy_hyxnVCHdYQa-50" style="edgeStyle=orthogonalEdgeStyle;rounded=0;orthogonalLoop=1;jettySize=auto;html=1;exitX=1;exitY=0.5;exitDx=0;exitDy=0;entryX=0;entryY=0.5;entryDx=0;entryDy=0;" parent="1" source="cxYo2-Zy_hyxnVCHdYQa-49" target="cxYo2-Zy_hyxnVCHdYQa-51" edge="1">
          <mxGeometry relative="1" as="geometry">
            <mxPoint x="680" y="330" as="targetPoint" />
          </mxGeometry>
        </mxCell>
        <mxCell id="cxYo2-Zy_hyxnVCHdYQa-49" value="Average" style="text;html=1;strokeColor=none;fillColor=none;align=center;verticalAlign=middle;whiteSpace=wrap;rounded=0;fontFamily=Times New Roman;" parent="1" vertex="1">
          <mxGeometry x="600" y="315" width="60" height="30" as="geometry" />
        </mxCell>
        <mxCell id="cxYo2-Zy_hyxnVCHdYQa-51" value="results_majority_server_malicious.txt" style="text;html=1;strokeColor=none;fillColor=none;align=center;verticalAlign=middle;whiteSpace=wrap;rounded=0;fontFamily=Times New Roman;" parent="1" vertex="1">
          <mxGeometry x="690" y="315" width="220" height="30" as="geometry" />
        </mxCell>
        <mxCell id="EzDs3DjtX2QvghOg0j50-1" value="&lt;font face=&quot;Times New Roman&quot;&gt;Balanced&lt;/font&gt;" style="rounded=0;whiteSpace=wrap;html=1;" vertex="1" parent="1">
          <mxGeometry x="570" y="80" width="120" height="60" as="geometry" />
        </mxCell>
        <mxCell id="EzDs3DjtX2QvghOg0j50-2" value="" style="endArrow=classic;html=1;rounded=0;exitX=0.45;exitY=0.983;exitDx=0;exitDy=0;exitPerimeter=0;" edge="1" parent="1" source="EzDs3DjtX2QvghOg0j50-1">
          <mxGeometry width="50" height="50" relative="1" as="geometry">
            <mxPoint x="600" y="160" as="sourcePoint" />
            <mxPoint x="610" y="200" as="targetPoint" />
          </mxGeometry>
        </mxCell>
        <mxCell id="EzDs3DjtX2QvghOg0j50-3" value="" style="endArrow=classic;html=1;rounded=0;exitX=0.5;exitY=1;exitDx=0;exitDy=0;" edge="1" parent="1" source="EzDs3DjtX2QvghOg0j50-1">
          <mxGeometry width="50" height="50" relative="1" as="geometry">
            <mxPoint x="785" y="170" as="sourcePoint" />
            <mxPoint x="670" y="200" as="targetPoint" />
          </mxGeometry>
        </mxCell>
        <mxCell id="EzDs3DjtX2QvghOg0j50-4" value="" style="endArrow=classic;html=1;rounded=0;exitX=0.5;exitY=1;exitDx=0;exitDy=0;" edge="1" parent="1" source="EzDs3DjtX2QvghOg0j50-1">
          <mxGeometry width="50" height="50" relative="1" as="geometry">
            <mxPoint x="815" y="170" as="sourcePoint" />
            <mxPoint x="730" y="200" as="targetPoint" />
          </mxGeometry>
        </mxCell>
      </root>
    </mxGraphModel>
  </diagram>
</mxfile>
